# File created by Blade
# Date/Time:  Wed Jan 21 18:34:34 2015
#---------------------------------------------------------
:version 1.10
:name HOM
:units
  mass 1.0
  length 1.000000
  angle deg
:documentation
     Acclaim Skeleton File
:root
   axis xyz
   order TX TY TZ RX RY RZ
   position 0.000000 0.000000 0.000000
   orientation 0 0 0
:bonedata
   begin
      id 1
      name RightUpLeg_dum
      direction -1.000000 0.000000 0.000000
      length 3.693983
      axis 0.0 0.0 0.0 xyz
   end
   begin
      id 2
      name LeftUpLeg_dum
      direction 1.000000 0.000000 0.000000
      length 3.693983
      axis 0.0 0.0 0.0 xyz
   end
   begin
      id 3
      name Spine_dum
      direction 0.000000 1.000000 0.000000
      length 2.392956
      axis 0.0 0.0 0.0 xyz
   end
   begin
      id 4
      name RightUpLeg
      direction 0.000000 -1.000000 0.000000
      length 15.795667
      axis 0.0 0.0 0.0 xyz
      dof rx ry rz
   end
   begin
      id 5
      name RightLeg
      direction 0.000000 -1.000000 0.000000
      length 14.766989
      axis 0.0 0.0 0.0 xyz
      dof rx ry rz
   end
   begin
      id 6
      name RightFoot
      direction 0.000000 -0.258819 0.965926
      length 4.962790
      axis 15.0 0.0 0.0 xyz
      dof rx ry rz
   end
   begin
      id 7
      name RightToeBase
      direction 0.000000 0.000000 1.000000
      length 2.952750
      axis 0.0 0.0 0.0 xyz
      dof rx ry rz
   end
   begin
      id 8
      name LeftUpLeg
      direction 0.000000 -1.000000 0.000000
      length 15.795667
      axis 0.0 0.0 0.0 xyz
      dof rx ry rz
   end
   begin
      id 9
      name LeftLeg
      direction 0.000000 -1.000000 0.000000
      length 14.766989
      axis 0.0 0.0 0.0 xyz
      dof rx ry rz
   end
   begin
      id 10
      name LeftFoot
      direction 0.000000 -0.258819 0.965926
      length 4.962790
      axis 15.0 0.0 0.0 xyz
      dof rx ry rz
   end
   begin
      id 11
      name LeftToeBase
      direction 0.000000 0.000000 1.000000
      length 2.952750
      axis 0.0 0.0 0.0 xyz
      dof rx ry rz
   end
   begin
      id 12
      name Spine
      direction 0.000000 1.000000 0.000000
      length 0.000000
      axis 0.0 0.0 0.0 xyz
      dof rx ry rz
   end
   begin
      id 13
      name Spine_dum1
      direction 0.000000 1.000000 0.000000
      length 13.207411
      axis 0.0 0.0 0.0 xyz
   end
   begin
      id 14
      name Spine_dum2
      direction 0.000000 1.000000 0.000000
      length 13.207411
      axis 0.0 0.0 0.0 xyz
   end
   begin
      id 15
      name Spine_dum3
      direction 0.000000 1.000000 0.000000
      length 19.250100
      axis 0.0 0.0 0.0 xyz
   end
   begin
      id 16
      name RightShoulder
      direction -1.000000 0.000000 0.000000
      length 8.140465
      axis 0.0 0.0 90.0 xyz
      dof rx ry rz
   end
   begin
      id 17
      name RightArm
      direction -1.000000 0.000000 0.000000
      length 10.649840
      axis 0.0 0.0 90.0 xyz
      dof rx ry rz
   end
   begin
      id 18
      name RightForeArm
      direction -1.000000 0.000000 0.000000
      length 8.304624
      axis 0.0 0.0 90.0 xyz
      dof ry rz rx
   end
   begin
      id 19
      name RightHand
      direction -1.000000 0.000000 0.000000
      length 0.000000
      axis 0.0 0.0 90.0 xyz
      dof rx ry rz
   end
   begin
      id 20
      name RightHand_dum1
      direction -1.000000 0.000000 0.000000
      length 3.937000
      axis 0.0 0.0 90.0 xyz
   end
   begin
      id 21
      name RightHand_dum2
      direction 0.000000 0.000000 0.000000
      length 0.000000
      axis 0.0 0.0 90.0 xyz
   end
   begin
      id 22
      name RightHandThumb1
      direction 0.000000 0.000000 1.000000
      length 3.937000
      axis 0.0 0.0 90.0 xyz
      dof rx rz ry
   end
   begin
      id 23
      name LeftShoulder
      direction 1.000000 0.000000 0.000000
      length 8.140465
      axis 0.0 0.0 -90.0 xyz
      dof rx ry rz
   end
   begin
      id 24
      name LeftArm
      direction 1.000000 0.000000 0.000000
      length 10.649840
      axis 0.0 0.0 -90.0 xyz
      dof rx ry rz
   end
   begin
      id 25
      name LeftForeArm
      direction 1.000000 0.000000 0.000000
      length 8.304624
      axis 0.0 0.0 -90.0 xyz
      dof ry rz rx
   end
   begin
      id 26
      name LeftHand
      direction 1.000000 0.000000 0.000000
      length 0.000000
      axis 0.0 0.0 -90.0 xyz
      dof rx ry rz
   end
   begin
      id 27
      name LeftHand_dum1
      direction 1.000000 0.000000 0.000000
      length 3.937000
      axis 0.0 0.0 -90.0 xyz
   end
   begin
      id 28
      name LeftHand_dum2
      direction 0.000000 0.000000 0.000000
      length 0.000000
      axis 0.0 0.0 -90.0 xyz
   end
   begin
      id 29
      name LeftHandThumb1
      direction 0.000000 0.000000 1.000000
      length 3.937000
      axis 0.0 0.0 -90.0 xyz
      dof rx rz ry
   end
   begin
      id 30
      name Head
      direction 0.000000 1.000000 0.000000
      length 4.527550
      axis 0.0 0.0 0.0 xyz
      dof rx ry rz
   end
:hierarchy
   begin
      root RightUpLeg_dum LeftUpLeg_dum Spine_dum
      RightUpLeg_dum RightUpLeg
      LeftUpLeg_dum LeftUpLeg
      Spine_dum Spine
      RightUpLeg RightLeg
      RightLeg RightFoot
      RightFoot RightToeBase
      LeftUpLeg LeftLeg
      LeftLeg LeftFoot
      LeftFoot LeftToeBase
      Spine Spine_dum1 Spine_dum2 Spine_dum3
      Spine_dum1 RightShoulder
      Spine_dum2 LeftShoulder
      Spine_dum3 Head
      RightShoulder RightArm
      RightArm RightForeArm
      RightForeArm RightHand
      RightHand RightHand_dum1 RightHand_dum2
      RightHand_dum2 RightHandThumb1
      LeftShoulder LeftArm
      LeftArm LeftForeArm
      LeftForeArm LeftHand
      LeftHand LeftHand_dum1 LeftHand_dum2
      LeftHand_dum2 LeftHandThumb1
   end

# File created by Blade
# Date/Time:  Wed Jan 21 18:34:41 2015
# Frame Rate: 120.000 fps
#------------------------------------------------------
:FULLY-SPECIFIED
:DEGREES
1058
root 2.536720 32.744307 -6.032615 43.836452 1.609237 1.425602
RightUpLeg -36.730209 -17.093431 7.698830
RightLeg -3.410753 -0.000000 0.000000
RightFoot -8.762458 -1.070220 21.601864
RightToeBase 20.632096 -0.000000 -0.000000
LeftUpLeg -37.923990 11.680032 -4.087404
LeftLeg 0.128590 -0.000000 -0.000000
LeftFoot -3.575693 -7.566052 -14.632415
LeftToeBase 1.971033 -0.000000 -0.000000
Spine -48.486947 1.543695 -3.460947
RightShoulder -18.693261 35.026175 -60.211626
RightArm 21.661155 -10.150935 21.373869
RightForeArm 8.390582 -0.000000 -0.324999
RightHand 10.980123 -0.000000 -0.646307
RightHandThumb1 -24.326973 -0.000000 -32.862282
LeftShoulder -10.771536 -16.053367 49.312704
LeftArm 43.824556 -21.103568 -16.843997
LeftForeArm 20.414259 0.000000 4.752010
LeftHand -26.369824 -0.000000 1.834191
LeftHandThumb1 -26.253704 0.000000 33.147579
Head 0.726159 -4.671533 4.506297
1059
root 2.534442 32.742661 -6.021728 43.832006 1.752236 1.442977
RightUpLeg -36.681156 -17.173337 7.748192
RightLeg -3.430859 -0.000000 0.000000
RightFoot -8.805728 -1.096751 21.617638
RightToeBase 20.655122 -0.000000 -0.000000
LeftUpLeg -37.927727 11.666872 -4.077874
LeftLeg 0.131774 -0.000000 -0.000000
LeftFoot -3.559925 -7.660602 -14.631477
LeftToeBase 1.998749 -0.000000 -0.000000
Spine -48.481061 1.513931 -3.473996
RightShoulder -18.966632 35.221035 -60.663905
RightArm 21.985271 -9.885693 21.060898
RightForeArm 8.290456 0.000000 -0.218467
RightHand 10.852232 0.000000 -0.857739
RightHandThumb1 -24.326973 -0.000000 -32.862282
LeftShoulder -10.910635 -16.189801 49.462691
LeftArm 43.870694 -21.503364 -16.430853
LeftForeArm 20.460350 0.000000 4.955511
LeftHand -26.402309 -0.000000 2.169119
LeftHandThumb1 -26.253704 0.000000 33.147579
Head 0.807067 -4.656474 4.508776
1060
root 2.531926 32.741640 -6.011492 43.820926 1.861962 1.472910
RightUpLeg -36.625450 -17.221942 7.751713
RightLeg -3.449555 -0.000000 0.000000
RightFoot -8.856405 -1.138000 21.681726
RightToeBase 20.649391 -0.000000 -0.000000
LeftUpLeg -37.924164 11.671356 -4.102002
LeftLeg 0.135878 -0.000000 -0.000000
LeftFoot -3.528493 -7.738093 -14.648422
LeftToeBase 2.044472 -0.000000 -0.000000
Spine -48.465472 1.484203 -3.512135
RightShoulder -19.267270 35.469851 -61.143302
RightArm 22.289338 -9.654702 20.801517
RightForeArm 8.279977 0.000000 -0.099374
RightHand 11.080043 -0.000000 -1.189343
RightHandThumb1 -24.326973 -0.000000 -32.862282
LeftShoulder -11.069209 -16.331088 49.616217
LeftArm 43.952397 -22.024971 -16.148039
LeftForeArm 20.317135 -0.000000 5.252406
LeftHand -26.566427 -0.000000 2.375772
LeftHandThumb1 -26.253704 0.000000 33.147579
Head 0.862005 -4.609411 4.538817
1061
root 2.532319 32.740246 -6.001036 43.822443 1.992368 1.506095
RightUpLeg -36.579884 -17.303171 7.774697
RightLeg -3.475307 -0.000000 0.000000
RightFoot -8.890760 -1.162243 21.695586
RightToeBase 20.645753 -0.000000 -0.000000
LeftUpLeg -37.919704 11.618297 -4.091096
LeftLeg 0.125461 -0.000000 -0.000000
LeftFoot -3.501182 -7.783478 -14.663772
LeftToeBase 2.044197 -0.000000 -0.000000
Spine -48.466563 1.435647 -3.527356
RightShoulder -19.483117 35.628731 -61.526030
RightArm 22.597299 -9.270882 20.500680
RightForeArm 8.365771 0.000000 0.023550
RightHand 11.192971 -0.000000 -1.304907
RightHandThumb1 -24.326973 -0.000000 -32.862282
LeftShoulder -11.238802 -16.651236 49.833064
LeftArm 44.004398 -22.318792 -15.885702
LeftForeArm 20.519899 -0.000000 5.413030
LeftHand -26.630887 -0.000000 2.764370
LeftHandThumb1 -26.253704 0.000000 33.147579
Head 0.943217 -4.600820 4.555579
1062
root 2.530793 32.737701 -5.992751 43.817510 2.120686 1.516543
RightUpLeg -36.535505 -17.350264 7.803462
RightLeg -3.491015 -0.000000 0.000000
RightFoot -8.951658 -1.199653 21.717826
RightToeBase 20.670247 -0.000000 -0.000000
LeftUpLeg -37.918428 11.597308 -4.067837
LeftLeg 0.121083 -0.000000 -0.000000
LeftFoot -3.489641 -7.853747 -14.665117
LeftToeBase 2.027322 -0.000000 -0.000000
Spine -48.455168 1.390792 -3.518853
RightShoulder -19.741777 35.888685 -61.966060
RightArm 22.898953 -8.998691 20.255024
RightForeArm 8.480248 0.000000 0.093808
RightHand 11.468659 -0.000000 -1.671047
RightHandThumb1 -24.326973 -0.000000 -32.862282
LeftShoulder -11.444219 -17.242049 50.177091
LeftArm 43.949740 -22.433292 -15.788190
LeftForeArm 20.567324 -0.000000 5.725152
LeftHand -26.768689 -0.000000 3.148221
LeftHandThumb1 -26.253704 0.000000 33.147579
Head 1.034041 -4.576404 4.605397
